#N canvas 401 41 935 454 10;
#X declare -lib mrpeach;
#X obj 310 17 import mrpeach;
#X obj 36 86 unpackOSC;
#X text 30 12 This patch receives osc signals from bitalino;
#X obj 39 111 routeOSC /biosample;
#X floatatom 35 166 5 0 0 0 - - -;
#X obj 35 138 unpack f f f f f f f f f f f;
#X floatatom 51 185 5 0 0 0 - - -;
#X floatatom 68 204 5 0 0 0 - - -;
#X floatatom 86 165 5 0 0 0 - - -;
#X floatatom 101 182 5 0 0 0 - - -;
#X floatatom 117 201 5 0 0 0 - - -;
#X floatatom 134 164 5 0 0 0 - - -;
#X floatatom 230 168 5 0 0 0 - - -;
#X obj 228 127 unpack f f f f f f f f f f f;
#X floatatom 276 160 5 0 0 0 - - -;
#X obj 515 92 unpackOSC;
#X obj 515 68 udpreceive 6448;
#X obj 518 117 routeOSC /wek/inputs;
#X obj 517 146 unpack f f f f f f;
#X floatatom 515 179 5 0 0 0 - - -;
#X floatatom 537 212 5 0 0 0 - - -;
#X floatatom 560 239 5 0 0 0 - - -;
#X floatatom 578 175 5 0 0 0 - - -;
#X floatatom 600 208 5 0 0 0 - - -;
#X floatatom 623 235 5 0 0 0 - - -;
#X obj 461 136 print;
#X obj 36 62 udpreceive 8889;
#X connect 1 0 3 0;
#X connect 3 0 5 0;
#X connect 5 0 4 0;
#X connect 5 1 6 0;
#X connect 5 2 7 0;
#X connect 5 3 8 0;
#X connect 5 4 9 0;
#X connect 5 5 10 0;
#X connect 5 6 11 0;
#X connect 13 0 12 0;
#X connect 13 1 14 0;
#X connect 15 0 25 0;
#X connect 16 0 15 0;
#X connect 17 0 18 0;
#X connect 18 0 19 0;
#X connect 18 1 20 0;
#X connect 18 2 21 0;
#X connect 18 3 22 0;
#X connect 18 4 23 0;
#X connect 18 5 24 0;
#X connect 26 0 1 0;
