#N canvas 72 182 1328 591 10;
#X obj 116 463 sendOSC;
#X msg 153 109 disconnect;
#X floatatom 105 490 5 0 0 0 - - -;
#X floatatom 160 484 5 0 0 0 - - -;
#X floatatom 201 162 5 0 0 0 - - -;
#X msg 201 196 send /aura/amp/0 \$1;
#X msg 580 61 0;
#X floatatom 338 162 5 0 0 0 - - -;
#X msg 337 196 send /dmx/intensity \$1;
#X floatatom 489 159 5 0 0 0 - - -;
#X floatatom 641 159 5 0 0 0 - - -;
#X msg 489 192 send /dmx/duration \$1;
#X msg 640 193 send /dmx/rate \$1;
#X floatatom 1073 171 5 0 0 0 - - -;
#X msg 1069 130 1;
#X msg 122 47 connect localhost 12001;
#X msg 827 224 send /speaker/amp/1 \$1;
#X msg 1074 204 send /speaker/enable \$1;
#X msg 828 198 send /speaker/amp/0 \$1;
#X floatatom 794 175 5 0 0 0 - - -;
#X floatatom 794 201 5 0 0 0 - - -;
#X floatatom 1078 284 5 0 0 0 - - -;
#X msg 1074 243 1;
#X msg 1079 317 send /dmx/enable \$1;
#X msg 137 73 connect 192.168.1.10 12000;
#X connect 0 0 2 0;
#X connect 0 1 3 0;
#X connect 1 0 0 0;
#X connect 4 0 5 0;
#X connect 5 0 0 0;
#X connect 6 0 4 0;
#X connect 6 0 7 0;
#X connect 6 0 9 0;
#X connect 6 0 10 0;
#X connect 6 0 13 0;
#X connect 6 0 19 0;
#X connect 6 0 20 0;
#X connect 6 0 21 0;
#X connect 7 0 8 0;
#X connect 8 0 0 0;
#X connect 9 0 11 0;
#X connect 10 0 12 0;
#X connect 11 0 0 0;
#X connect 12 0 0 0;
#X connect 13 0 17 0;
#X connect 14 0 13 0;
#X connect 15 0 0 0;
#X connect 16 0 0 0;
#X connect 17 0 0 0;
#X connect 18 0 0 0;
#X connect 19 0 18 0;
#X connect 20 0 16 0;
#X connect 21 0 23 0;
#X connect 22 0 21 0;
#X connect 23 0 0 0;
#X connect 24 0 0 0;
