#N canvas 82 167 1156 308 10;
#X obj 131 219 sendOSC;
#X msg 53 94 disconnect;
#X floatatom 120 246 5 0 0 0 - - -;
#X floatatom 175 240 5 0 0 0 - - -;
#X msg 35 68 connect 192.168.1.105 12000;
#X floatatom 158 128 5 0 0 0 - - -;
#X obj 207 200 print;
#X msg 158 161 send /aura/amp/0 \$1;
#X msg 30 172 send /aura/amp/0 5;
#X floatatom 293 125 5 0 0 0 - - -;
#X msg 294 158 send /speaker/amp/0 \$1;
#X msg 280 29 0;
#X floatatom 626 138 5 0 0 0 - - -;
#X msg 625 172 send /dmx/intensity \$1;
#X floatatom 777 135 5 0 0 0 - - -;
#X floatatom 929 135 5 0 0 0 - - -;
#X msg 777 168 send /dmx/duration \$1;
#X msg 928 169 send /dmx/rate \$1;
#X floatatom 457 124 5 0 0 0 - - -;
#X msg 458 157 send /speaker/enable \$1;
#X msg 451 30 1;
#X msg 505 26 0;
#X connect 0 0 2 0;
#X connect 0 1 3 0;
#X connect 1 0 0 0;
#X connect 4 0 0 0;
#X connect 5 0 7 0;
#X connect 7 0 0 0;
#X connect 8 0 0 0;
#X connect 9 0 10 0;
#X connect 10 0 0 0;
#X connect 11 0 9 0;
#X connect 11 0 5 0;
#X connect 11 0 12 0;
#X connect 11 0 14 0;
#X connect 11 0 15 0;
#X connect 11 0 18 0;
#X connect 12 0 13 0;
#X connect 13 0 0 0;
#X connect 14 0 16 0;
#X connect 15 0 17 0;
#X connect 16 0 0 0;
#X connect 17 0 0 0;
#X connect 18 0 19 0;
#X connect 19 0 0 0;
#X connect 20 0 18 0;
#X connect 21 0 18 0;
